<svg width="652" height="565" viewBox="0 0 652 565" fill="none" xmlns="http://www.w3.org/2000/svg">
<path d="M110.142 263.953H8.15039V217.371L94.5771 26.1201H174.04V216.993H204.76V263.953H174.04V332.878H110.144L110.142 263.953ZM110.142 216.993V89.3641L60.1702 216.993H110.142Z" fill="#D2DCF7"/>
<path d="M234.25 250.698V111.71C234.25 57.932 262.513 21.5749 324.772 21.5749C386.622 21.5749 414.885 57.932 414.885 111.714V250.698C414.885 302.206 383.752 338.56 324.772 338.56C264.969 338.56 234.25 302.961 234.25 250.698ZM345.253 249.184V113.224C345.253 100.727 345.253 78.0039 324.773 78.0039C303.883 78.0039 304.293 100.727 304.293 113.224V249.184C304.293 260.92 305.93 282.131 324.773 282.131C344.023 282.131 345.253 260.923 345.253 249.184Z" fill="#D2DCF7"/>
<path d="M549.229 263.953H447.24V217.371L533.667 26.1201H613.129V216.993H643.85V263.953H613.129V332.878H549.229V263.953ZM549.229 216.993V89.3641L499.257 216.993H549.229Z" fill="#D2DCF7"/>
<path fill-rule="evenodd" clip-rule="evenodd" d="M476.407 454.422C486.757 478.042 484.743 525.241 469.281 525.409C455.412 525.564 431.31 520.09 422.845 468.603C420.803 456.179 468.445 436.24 476.407 454.417V454.422Z" fill="#FFA39E"/>
<path fill-rule="evenodd" clip-rule="evenodd" d="M400.685 328.783C427.726 342.612 445.654 353.189 453.916 380.21C462.179 407.231 485.119 467.956 485.119 467.956C458.142 463.234 436.3 469.063 420.67 484.704C420.67 484.704 411.853 423.076 407.205 397.389C402.557 371.703 376.228 316.278 400.685 328.783H400.685Z" fill="#D2DCF7"/>
<path fill-rule="evenodd" clip-rule="evenodd" d="M212.12 483.653C209.013 502.528 207.133 521.585 206.491 540.703C221.997 546.445 244.018 545.07 254.537 539.779L259.865 486.369L212.12 483.653Z" fill="#FFB7A6"/>
<path d="M240.914 531.639C239.984 536.33 238.98 540.479 238.044 543.983C244.575 543.301 250.432 541.844 254.536 539.781L259.864 486.371L244.347 485.489C244.5 503.784 243.947 516.339 240.914 531.639Z" fill="#FF9495"/>
<path fill-rule="evenodd" clip-rule="evenodd" d="M264.436 332.926C240.494 344.806 225.23 354.541 218.695 396.19C210.451 448.73 206.596 475.51 204.156 497.847C211.627 502.826 253.698 504.975 262.598 500.449C262.598 500.449 265.782 454.539 269.43 421.602C273.242 387.199 282.156 324.132 264.436 332.93V332.926Z" fill="#D2DCF7"/>
<path d="M262.274 368.661C247.086 380.342 245.118 400.887 243.236 423.918C242.574 432.037 243.36 428.081 244.165 472.672C244.382 484.677 244.487 494.234 244.171 502.908C252.42 502.785 259.51 502.02 262.599 500.449C262.599 500.449 265.783 454.539 269.431 421.602C271.298 404.758 274.385 381.047 274.973 362.259C270.383 363.596 266.079 365.766 262.274 368.661Z" fill="#87CCDE"/>
<path fill-rule="evenodd" clip-rule="evenodd" d="M380.912 323.335C370.279 319.649 358.363 315.295 355.78 310.947C348.784 299.174 349.136 258.358 349.136 258.358L307.881 259.654C307.881 259.654 311.641 294.514 304.59 310.668C301.54 317.655 288.832 323.475 278.228 328.019C300.306 373.283 364.812 372.379 380.912 323.335Z" fill="#FFB7A6"/>
<path d="M350.382 286.978C349.011 272.797 349.135 258.359 349.135 258.359L307.88 259.655C308.695 268.068 309.008 276.522 308.815 284.972C322.671 301.295 336.527 301.964 350.382 286.978Z" fill="#FF9495"/>
<path d="M371.042 319.761C361.175 362.973 298.375 362.044 289.664 322.761C285.931 324.668 281.952 326.429 278.228 328.021C300.306 373.283 364.812 372.379 380.912 323.335C377.64 322.202 374.248 321.003 371.042 319.761Z" fill="#FF9495"/>
<path fill-rule="evenodd" clip-rule="evenodd" d="M375.651 319.963C361.2 363.993 303.279 364.797 283.474 324.146C271.001 329.525 256.824 334.669 251.082 345.639C240.964 364.975 244.785 413.649 248.923 464.336C253.062 515.022 252.116 543.484 252.116 543.484L433.952 542.318C433.952 542.318 430.237 506.51 429.084 459.803C427.931 413.095 439.753 367.449 423.665 345.599C413.518 331.819 391.95 325.62 375.651 319.963Z" fill="#D2DCF7"/>
<path fill-rule="evenodd" clip-rule="evenodd" d="M368.054 129.267C368.054 129.267 383.132 132.439 395.903 152.858C411.155 177.24 407.533 209.702 396.296 199.919C401.931 224.34 390.127 225.904 388.262 215.541C390.028 248.023 373.989 247.067 374.137 237.32C352.081 289.46 305.931 288.923 285.681 237.472C287.051 244.073 276.058 246.777 271.329 223.181C272.226 230.635 256.935 230.944 262.357 204.975C258.914 214.13 245.014 209.262 259.005 179.516C223.106 179.832 292.065 89.9241 347.269 120.399C338.242 111.898 353.789 107.848 362.184 127.305C359.221 117.898 368.199 120.386 368.057 129.267H368.054Z" fill="#1F4FD8"/>
<path fill-rule="evenodd" clip-rule="evenodd" d="M378.186 220.824C382.165 218.606 393.423 216.912 395.856 227.301C398.847 240.069 383.772 250.701 374.569 245.405C374.406 236.828 378.186 220.824 378.186 220.824Z" fill="#FF9495"/>
<path fill-rule="evenodd" clip-rule="evenodd" d="M392.667 226.463C384.598 225.767 379.938 230.398 377.612 238.671L392.667 226.463Z" fill="#FFA39E"/>
<path d="M392.667 226.463C384.598 225.767 379.938 230.398 377.612 238.671" stroke="#091841" stroke-width="1.0801" stroke-linecap="round" stroke-linejoin="round"/>
<path fill-rule="evenodd" clip-rule="evenodd" d="M282.67 220.824C278.691 218.606 267.435 216.912 265.001 227.301C262.012 240.069 277.088 250.701 286.29 245.405C286.453 236.828 282.67 220.824 282.67 220.824Z" fill="#FF9495"/>
<path fill-rule="evenodd" clip-rule="evenodd" d="M268.192 226.463C276.261 225.767 280.923 230.398 283.246 238.671L268.192 226.463Z" fill="#FFA39E"/>
<path d="M268.192 226.463C276.261 225.767 280.923 230.398 283.246 238.671" stroke="#091841" stroke-width="1.0801" stroke-linecap="round" stroke-linejoin="round"/>
<path fill-rule="evenodd" clip-rule="evenodd" d="M386.25 175.286C391.163 187.796 379.827 241.861 373.334 258.359C366.84 274.857 346.84 287.469 329.556 287.502C312.272 287.535 290.72 273.997 285.778 258.206C280.836 242.415 274.622 178.454 279.37 171.273C298.255 142.708 375.517 147.954 386.25 175.286Z" fill="#FFB7A6"/>
<path d="M386.249 175.286C375.517 147.954 298.255 142.708 279.369 171.273C276.874 175.048 277.409 194.509 279.194 214.415C281.55 202.871 291.819 197.228 295.651 185.366C295.839 195.865 309.602 187.756 322.66 177.445C316.177 187.028 330.419 182.328 336.27 176.605C346.463 187.126 368.218 210.93 364.563 189.259C373.383 206.257 380.883 203.238 384.103 215.115C387.112 198.048 388.696 181.515 386.249 175.286Z" fill="#FF9495"/>
<path fill-rule="evenodd" clip-rule="evenodd" d="M320.51 265.584C327.534 263.954 331.264 265.463 332.51 271.278C329.256 268.096 325.032 266.093 320.51 265.584Z" fill="#091841"/>
<path d="M324.837 223.362C324.837 223.362 319.982 239.429 318.63 244.521C317.533 248.651 322.683 253.173 328.98 252.345" stroke="#091841" stroke-width="1.0801" stroke-linecap="round" stroke-linejoin="round"/>
<path fill-rule="evenodd" clip-rule="evenodd" d="M358.044 214C357.153 214 356.283 214.264 355.542 214.759C354.801 215.254 354.224 215.957 353.884 216.78C353.543 217.603 353.454 218.509 353.628 219.382C353.802 220.256 354.231 221.058 354.86 221.688C355.49 222.318 356.293 222.747 357.166 222.921C358.04 223.094 358.945 223.005 359.768 222.664C360.591 222.323 361.295 221.746 361.789 221.005C362.284 220.265 362.548 219.394 362.548 218.503C362.548 217.309 362.073 216.164 361.228 215.319C360.384 214.475 359.238 214 358.044 214Z" fill="#091841"/>
<path fill-rule="evenodd" clip-rule="evenodd" d="M304.964 214C305.854 214 306.725 214.264 307.466 214.759C308.206 215.254 308.784 215.957 309.125 216.78C309.465 217.603 309.555 218.508 309.381 219.382C309.207 220.256 308.778 221.058 308.148 221.688C307.518 222.318 306.716 222.747 305.842 222.92C304.969 223.094 304.063 223.005 303.24 222.664C302.417 222.323 301.714 221.746 301.219 221.005C300.724 220.265 300.46 219.394 300.46 218.503C300.46 217.309 300.935 216.164 301.78 215.319C302.624 214.475 303.769 214 304.964 214Z" fill="#091841"/>
<path fill-rule="evenodd" clip-rule="evenodd" d="M353.081 197.491C359.845 196.864 363.771 199.718 365.632 204.278C367.046 207.732 372.052 206.031 370.204 201.81C367.148 194.828 361.225 190.75 352.313 192C348.206 192.576 349.176 197.852 353.077 197.491H353.081Z" fill="#091841"/>
<path fill-rule="evenodd" clip-rule="evenodd" d="M309.927 197.491C303.163 196.864 299.238 199.718 297.371 204.278C295.957 207.732 290.95 206.031 292.799 201.81C295.855 194.828 301.778 190.75 310.69 192C314.797 192.576 313.827 197.852 309.927 197.491Z" fill="#091841"/>
<path fill-rule="evenodd" clip-rule="evenodd" d="M383.247 219.586C380.752 197.931 374.35 205.194 364.565 181.53C368.222 208.723 346.465 178.854 336.272 165.651C330.419 172.833 316.178 178.731 322.662 166.706C309.604 179.644 295.841 189.82 295.653 176.649C291.355 193.34 279.783 200.191 279.546 218.714C279.546 218.714 265.707 169.605 276.808 154.335C287.908 139.065 376.221 139.4 384.992 157.094C393.763 174.788 383.248 219.589 383.248 219.589L383.247 219.586Z" fill="#1F4FD8"/>
<path opacity="0.5" d="M362.408 254.313C381.755 254.313 397.439 238.629 397.439 219.282C397.439 199.936 381.755 184.252 362.408 184.252C343.062 184.252 327.378 199.936 327.378 219.282C327.378 238.629 343.062 254.313 362.408 254.313Z" fill="#C7E9EF"/>
<path opacity="0.5" d="M392.404 201.205C370.336 210.525 355.503 227.335 347.051 250.74C353.841 254.068 361.526 255.107 368.956 253.702C376.386 252.298 383.161 248.524 388.267 242.947C393.374 237.37 396.536 230.289 397.282 222.764C398.028 215.24 396.316 207.676 392.404 201.205Z" fill="white"/>
<path d="M381.725 260.457L374.077 263.24L377.869 273.659L385.517 270.875L381.725 260.457Z" fill="#9B9ABC"/>
<path d="M379.304 253.806L371.656 256.589L374.077 263.239L381.724 260.456L379.304 253.806Z" fill="#8A89B1"/>
<path d="M377.818 273.677L385.567 270.856C386.031 270.687 386.544 270.71 386.992 270.919C387.439 271.128 387.786 271.506 387.955 271.97L403.619 315.005C403.887 315.744 404.008 316.529 403.974 317.314C403.94 318.099 403.751 318.87 403.419 319.583C403.086 320.295 402.617 320.935 402.038 321.466C401.458 321.997 400.779 322.409 400.041 322.678C399.302 322.947 398.518 323.068 397.732 323.033C396.947 322.999 396.176 322.81 395.463 322.478C394.751 322.146 394.111 321.677 393.58 321.097C393.049 320.517 392.637 319.839 392.368 319.1L376.705 276.065C376.536 275.6 376.558 275.088 376.767 274.64C376.976 274.192 377.354 273.846 377.818 273.677Z" fill="#57568F"/>
<g opacity="0.5">
<path d="M362.406 187.764C370.3 187.755 377.911 190.705 383.737 196.032C389.563 201.358 393.181 208.675 393.877 216.538C394.573 224.402 392.296 232.24 387.497 238.508C382.697 244.775 375.723 249.016 367.95 250.393C360.177 251.771 352.17 250.185 345.509 245.949C338.848 241.713 334.016 235.134 331.967 227.511C329.919 219.887 330.802 211.773 334.442 204.768C338.082 197.764 344.216 192.378 351.632 189.674C355.085 188.416 358.731 187.769 362.406 187.764ZM362.406 184.242C354.955 184.242 347.698 186.616 341.689 191.021C335.679 195.426 331.231 201.633 328.989 208.738C326.748 215.844 326.83 223.48 329.224 230.536C331.618 237.592 336.199 243.701 342.302 247.975C348.405 252.25 355.712 254.468 363.161 254.306C370.61 254.145 377.814 251.613 383.726 247.078C389.638 242.543 393.951 236.241 396.037 229.088C398.123 221.935 397.875 214.303 395.327 207.301C392.878 200.538 388.403 194.695 382.511 190.568C376.62 186.442 369.599 184.233 362.406 184.242Z" fill="#C7E9EF"/>
</g>
<path d="M348.289 180.491C340.617 183.283 333.945 188.288 329.117 194.872C324.289 201.457 321.522 209.325 321.165 217.482C320.809 225.639 322.88 233.718 327.115 240.698C331.351 247.679 337.561 253.246 344.961 256.697C352.361 260.147 360.618 261.326 368.687 260.084C376.757 258.842 384.277 255.235 390.297 249.719C396.317 244.203 400.565 237.025 402.506 229.095C404.446 221.164 403.992 212.836 401.199 205.163C397.454 194.876 389.776 186.497 379.854 181.87C369.931 177.243 358.577 176.747 348.289 180.491ZM374.389 252.2C367.878 254.57 360.811 254.955 354.082 253.309C347.352 251.662 341.262 248.056 336.581 242.948C331.9 237.84 328.84 231.459 327.786 224.611C326.732 217.763 327.732 210.757 330.66 204.478C333.588 198.198 338.313 192.929 344.236 189.334C350.159 185.74 357.015 183.983 363.936 184.285C370.858 184.588 377.535 186.936 383.122 191.032C388.709 195.129 392.956 200.791 395.326 207.301C396.9 211.624 397.606 216.215 397.406 220.811C397.205 225.406 396.101 229.918 394.157 234.087C392.213 238.257 389.466 242.002 386.074 245.11C382.682 248.218 378.712 250.627 374.389 252.2Z" fill="#57568F"/>
<path fill-rule="evenodd" clip-rule="evenodd" d="M376.041 302.674C376.041 302.674 366.913 300.963 364.774 301.965C362.635 302.967 360.918 307.63 360.451 309.62C359.983 311.609 366.563 328.982 367.97 333.902C369.376 338.821 385.582 331.62 379.313 315.785C377.788 311.535 376.692 307.143 376.041 302.674Z" fill="#FF9495"/>
<path fill-rule="evenodd" clip-rule="evenodd" d="M409.711 280.412C408.272 278.333 390.39 268.905 385.505 270.602C380.232 272.437 369.544 290.229 369.317 293.69C369.09 297.152 373.539 301.54 373.539 301.54L413.665 291.313C414.154 288.222 411.068 282.377 409.711 280.412Z" fill="#FF9495"/>
<path fill-rule="evenodd" clip-rule="evenodd" d="M410.934 283.361C407.521 283.117 373.064 291.829 370.339 299.166C367.614 306.502 373.142 312.726 373.142 312.726C370.489 316.833 372.694 321.87 377.524 328.524C375.439 332.599 381.245 351.061 385.549 352.348C389.868 353.639 395.221 352.116 395.221 352.116C395.221 352.116 394.333 364.048 398.77 368.674C403.208 373.301 412.766 373.436 412.766 373.436C412.766 373.436 422.985 475.847 426.144 497.081C429.303 518.315 459.692 528.377 469.487 524.954C479.283 521.531 484.446 487.864 477.165 464.741C469.884 441.618 439.807 374.276 438.463 367.078C437.118 359.88 434.678 326.624 433.496 321.152C432.436 316.234 430.854 310.483 429.883 306.206C427.172 294.266 423.473 290.416 417.47 291.284C417.47 291.284 414.678 283.623 410.934 283.359V283.361Z" fill="#FFB7A6"/>
<path d="M373.073 312.862C376.92 307.741 395.201 302.756 411.541 296.491M377.556 328.474C380.718 323.354 401.336 317.753 416.524 311.29M414.58 335.774L395.65 338.607C396.2 340.483 396.237 342.472 395.756 344.367C395.275 346.261 394.295 347.992 392.917 349.378M386.873 337.09C389.093 339.269 393.142 339.026 395.776 338.579M395.677 351.996C395.677 351.996 406.288 350.195 410.462 349.026C413.831 348.084 413.6 337.952 401.492 337.757" stroke="#091841" stroke-width="1.0801" stroke-linecap="round" stroke-linejoin="round"/>
</svg>
