<svg width="137" height="53" viewBox="0 0 137 53" fill="none" xmlns="http://www.w3.org/2000/svg">
<path fill-rule="evenodd" clip-rule="evenodd" d="M11.002 49.6475L0.0771484 49.5674L45 1L11.002 49.6475ZM43.9492 49.6475L15.127 49.4229L37.1299 18.0146L21.4678 45.5244L39.6504 45.2998V14.4922L44.082 8.3457L43.9492 49.6475ZM37.7412 6.32129L33.0049 10.3691H4.43164L4.27832 34.9561L27.7334 15.0166L0 44.7754V6.17188L37.7412 6.32129Z" fill="#F9FAFB"/>
<path d="M58.064 24V7.248H68.528V9.648H60.776V14.304H67.664V16.704H60.776V24H58.064ZM74.8795 9.288C74.3355 9.288 73.9355 9.16 73.6795 8.904C73.4395 8.648 73.3195 8.32 73.3195 7.92V7.512C73.3195 7.112 73.4395 6.784 73.6795 6.528C73.9355 6.272 74.3355 6.144 74.8795 6.144C75.4235 6.144 75.8155 6.272 76.0555 6.528C76.2955 6.784 76.4155 7.112 76.4155 7.512V7.92C76.4155 8.32 76.2955 8.648 76.0555 8.904C75.8155 9.16 75.4235 9.288 74.8795 9.288ZM73.5595 11.52H76.1755V24H73.5595V11.52ZM81.9111 24V11.52H84.5271V13.584H84.6471C84.9191 12.912 85.3271 12.352 85.8711 11.904C86.4311 11.456 87.1911 11.232 88.1511 11.232C89.4311 11.232 90.4231 11.656 91.1271 12.504C91.8471 13.336 92.2071 14.528 92.2071 16.08V24H89.5911V16.416C89.5911 14.464 88.8071 13.488 87.2391 13.488C86.9031 13.488 86.5671 13.536 86.2311 13.632C85.9111 13.712 85.6231 13.84 85.3671 14.016C85.1111 14.192 84.9031 14.416 84.7431 14.688C84.5991 14.96 84.5271 15.28 84.5271 15.648V24H81.9111ZM102.729 24.288C101.865 24.288 101.073 24.136 100.353 23.832C99.6489 23.528 99.0489 23.096 98.5529 22.536C98.0569 21.96 97.6729 21.272 97.4009 20.472C97.1289 19.656 96.9929 18.752 96.9929 17.76C96.9929 16.768 97.1289 15.872 97.4009 15.072C97.6729 14.256 98.0569 13.568 98.5529 13.008C99.0489 12.432 99.6489 11.992 100.353 11.688C101.073 11.384 101.865 11.232 102.729 11.232C103.593 11.232 104.377 11.384 105.081 11.688C105.801 11.992 106.409 12.432 106.905 13.008C107.401 13.568 107.785 14.256 108.057 15.072C108.329 15.872 108.465 16.768 108.465 17.76C108.465 18.752 108.329 19.656 108.057 20.472C107.785 21.272 107.401 21.96 106.905 22.536C106.409 23.096 105.801 23.528 105.081 23.832C104.377 24.136 103.593 24.288 102.729 24.288ZM102.729 22.128C103.625 22.128 104.345 21.856 104.889 21.312C105.433 20.752 105.705 19.92 105.705 18.816V16.704C105.705 15.6 105.433 14.776 104.889 14.232C104.345 13.672 103.625 13.392 102.729 13.392C101.833 13.392 101.113 13.672 100.569 14.232C100.025 14.776 99.7529 15.6 99.7529 16.704V18.816C99.7529 19.92 100.025 20.752 100.569 21.312C101.113 21.856 101.833 22.128 102.729 22.128ZM113.38 24V11.52H115.996V13.92H116.116C116.292 13.28 116.66 12.72 117.22 12.24C117.78 11.76 118.556 11.52 119.548 11.52H120.244V14.04H119.212C118.172 14.04 117.372 14.208 116.812 14.544C116.268 14.88 115.996 15.376 115.996 16.032V24H113.38ZM133.524 24C132.836 24 132.308 23.808 131.94 23.424C131.572 23.024 131.348 22.52 131.268 21.912H131.148C130.908 22.696 130.468 23.288 129.828 23.688C129.188 24.088 128.412 24.288 127.5 24.288C126.204 24.288 125.204 23.952 124.5 23.28C123.812 22.608 123.468 21.704 123.468 20.568C123.468 19.32 123.916 18.384 124.812 17.76C125.724 17.136 127.052 16.824 128.796 16.824H131.052V15.768C131.052 15 130.844 14.408 130.428 13.992C130.012 13.576 129.364 13.368 128.484 13.368C127.748 13.368 127.148 13.528 126.684 13.848C126.22 14.168 125.828 14.576 125.508 15.072L123.948 13.656C124.364 12.952 124.948 12.376 125.7 11.928C126.452 11.464 127.436 11.232 128.652 11.232C130.268 11.232 131.508 11.608 132.372 12.36C133.236 13.112 133.668 14.192 133.668 15.6V21.864H134.988V24H133.524ZM128.244 22.296C129.06 22.296 129.732 22.12 130.26 21.768C130.788 21.4 131.052 20.912 131.052 20.304V18.504H128.844C127.036 18.504 126.132 19.064 126.132 20.184V20.616C126.132 21.176 126.316 21.6 126.684 21.888C127.068 22.16 127.588 22.296 128.244 22.296Z" fill="white"/>
<path d="M64.04 48.288C61.96 48.288 60.352 47.568 59.216 46.128C58.08 44.672 57.512 42.52 57.512 39.672C57.512 36.84 58.08 34.68 59.216 33.192C60.352 31.704 61.96 30.96 64.04 30.96C65.384 30.96 66.512 31.28 67.424 31.92C68.352 32.56 69.072 33.432 69.584 34.536L68.408 35.232C68.04 34.32 67.48 33.6 66.728 33.072C65.992 32.528 65.096 32.256 64.04 32.256C62.472 32.256 61.248 32.816 60.368 33.936C59.488 35.056 59.048 36.656 59.048 38.736V40.632C59.048 42.696 59.488 44.272 60.368 45.36C61.248 46.448 62.472 46.992 64.04 46.992C65.16 46.992 66.096 46.712 66.848 46.152C67.6 45.576 68.16 44.808 68.528 43.848L69.704 44.544C69.208 45.696 68.48 46.608 67.52 47.28C66.56 47.952 65.4 48.288 64.04 48.288ZM82.4925 48C81.9645 48 81.5805 47.864 81.3405 47.592C81.1005 47.32 80.9645 46.952 80.9325 46.488V46.056H80.8125C80.5405 46.744 80.0925 47.288 79.4685 47.688C78.8445 48.088 78.0525 48.288 77.0925 48.288C75.7965 48.288 74.7965 47.976 74.0925 47.352C73.3885 46.712 73.0365 45.816 73.0365 44.664C73.0365 43.576 73.4205 42.712 74.1885 42.072C74.9725 41.432 76.2525 41.112 78.0285 41.112H80.8605V39.672C80.8605 37.64 79.8125 36.624 77.7165 36.624C76.9005 36.624 76.2205 36.8 75.6765 37.152C75.1325 37.488 74.6925 37.976 74.3565 38.616L73.4925 37.896C73.8285 37.176 74.3405 36.584 75.0285 36.12C75.7325 35.656 76.6445 35.424 77.7645 35.424C79.2045 35.424 80.3085 35.784 81.0765 36.504C81.8445 37.224 82.2285 38.232 82.2285 39.528V46.8H83.8845V48H82.4925ZM77.2845 47.112C77.7805 47.112 78.2445 47.048 78.6765 46.92C79.1085 46.792 79.4845 46.616 79.8045 46.392C80.1405 46.152 80.3965 45.872 80.5725 45.552C80.7645 45.216 80.8605 44.84 80.8605 44.424V42.144H77.9805C76.7485 42.144 75.8525 42.344 75.2925 42.744C74.7485 43.128 74.4765 43.664 74.4765 44.352V44.928C74.4765 45.648 74.7325 46.192 75.2445 46.56C75.7565 46.928 76.4365 47.112 77.2845 47.112ZM87.7008 35.712H89.0688V37.68H89.1408C89.4448 36.992 89.9088 36.448 90.5328 36.048C91.1568 35.632 91.9408 35.424 92.8848 35.424C94.4688 35.424 95.7088 35.984 96.6048 37.104C97.5008 38.224 97.9488 39.808 97.9488 41.856C97.9488 43.904 97.5008 45.488 96.6048 46.608C95.7088 47.728 94.4688 48.288 92.8848 48.288C91.9408 48.288 91.1648 48.088 90.5568 47.688C89.9488 47.272 89.4768 46.72 89.1408 46.032H89.0688V52.8H87.7008V35.712ZM92.5728 47.064C93.8048 47.064 94.7648 46.672 95.4528 45.888C96.1408 45.104 96.4848 44.048 96.4848 42.72V40.992C96.4848 39.664 96.1408 38.608 95.4528 37.824C94.7648 37.04 93.8048 36.648 92.5728 36.648C92.0928 36.648 91.6368 36.72 91.2048 36.864C90.7888 36.992 90.4208 37.176 90.1008 37.416C89.7808 37.656 89.5248 37.944 89.3328 38.28C89.1568 38.616 89.0688 38.984 89.0688 39.384V44.256C89.0688 44.688 89.1568 45.08 89.3328 45.432C89.5248 45.768 89.7808 46.064 90.1008 46.32C90.4208 46.56 90.7888 46.744 91.2048 46.872C91.6368 47 92.0928 47.064 92.5728 47.064ZM103.154 32.376C102.834 32.376 102.594 32.296 102.434 32.136C102.29 31.976 102.218 31.768 102.218 31.512V31.272C102.218 31.016 102.29 30.808 102.434 30.648C102.594 30.488 102.834 30.408 103.154 30.408C103.474 30.408 103.706 30.488 103.85 30.648C104.01 30.808 104.09 31.016 104.09 31.272V31.512C104.09 31.768 104.01 31.976 103.85 32.136C103.706 32.296 103.474 32.376 103.154 32.376ZM102.482 35.712H103.85V48H102.482V35.712ZM111.43 48C110.934 48 110.558 47.864 110.302 47.592C110.046 47.32 109.918 46.952 109.918 46.488V36.912H107.782V35.712H109.174C109.51 35.712 109.734 35.648 109.846 35.52C109.974 35.376 110.038 35.128 110.038 34.776V32.28H111.286V35.712H114.07V36.912H111.286V46.8H113.878V48H111.43ZM126.805 48C126.277 48 125.893 47.864 125.653 47.592C125.413 47.32 125.277 46.952 125.245 46.488V46.056H125.125C124.853 46.744 124.405 47.288 123.781 47.688C123.157 48.088 122.365 48.288 121.405 48.288C120.109 48.288 119.109 47.976 118.405 47.352C117.701 46.712 117.349 45.816 117.349 44.664C117.349 43.576 117.733 42.712 118.501 42.072C119.285 41.432 120.565 41.112 122.341 41.112H125.173V39.672C125.173 37.64 124.125 36.624 122.029 36.624C121.213 36.624 120.533 36.8 119.989 37.152C119.445 37.488 119.005 37.976 118.669 38.616L117.805 37.896C118.141 37.176 118.653 36.584 119.341 36.12C120.045 35.656 120.957 35.424 122.077 35.424C123.517 35.424 124.621 35.784 125.389 36.504C126.157 37.224 126.541 38.232 126.541 39.528V46.8H128.197V48H126.805ZM121.597 47.112C122.093 47.112 122.557 47.048 122.989 46.92C123.421 46.792 123.797 46.616 124.117 46.392C124.453 46.152 124.709 45.872 124.885 45.552C125.077 45.216 125.173 44.84 125.173 44.424V42.144H122.293C121.061 42.144 120.165 42.344 119.605 42.744C119.061 43.128 118.789 43.664 118.789 44.352V44.928C118.789 45.648 119.045 46.192 119.557 46.56C120.069 46.928 120.749 47.112 121.597 47.112ZM133.525 48C133.029 48 132.653 47.864 132.397 47.592C132.141 47.32 132.013 46.96 132.013 46.512V30.24H133.381V46.8H135.277V48H133.525Z" fill="white"/>
</svg>
