<svg width="32" height="32" viewBox="0 0 32 32" fill="none" xmlns="http://www.w3.org/2000/svg">
<g clip-path="url(#clip0_109_587)">
<path d="M31.4889 0H0.511108V5.54248H2.34835V24.308H15.0627V26.2546C13.8946 26.6473 13.0506 27.7518 13.0506 29.0505C13.0506 30.6768 14.3737 31.9999 16 31.9999C17.6264 31.9999 18.9495 30.6768 18.9495 29.0505C18.9495 27.7518 18.1054 26.6472 16.9374 26.2546V24.308H29.6547V5.54248H31.4889V0ZM16 30.1253C15.4074 30.1253 14.9253 29.6431 14.9253 29.0505C14.9253 28.4579 15.4074 27.9758 16 27.9758C16.5926 27.9758 17.0748 28.4579 17.0748 29.0505C17.0748 29.6431 16.5926 30.1253 16 30.1253ZM2.38585 3.66774V1.87474H29.6142V3.66774H2.38585ZM27.78 22.4333H4.22309V5.54248H27.78V22.4333Z" fill="black"/>
<path d="M24.4368 20.5583V7.41748H18.8124V9.91732H15.0627V12.4171H11.313V14.9169H7.56323V20.5583H24.4368ZM20.6871 9.29222H22.5621V18.6836H20.6871V9.29222ZM16.9374 11.7921H18.8124V18.6836H16.9374V11.7921ZM13.1877 14.2918H15.0627V18.6836H13.1877V14.2918ZM9.43797 18.6836V16.7917H11.313V18.6836H9.43797Z" fill="black"/>
</g>
<defs>
<clipPath id="clip0_109_587">
<rect width="32" height="32" fill="white"/>
</clipPath>
</defs>
</svg>
