<svg width="32" height="32" viewBox="0 0 32 32" fill="none" xmlns="http://www.w3.org/2000/svg">
<g clip-path="url(#clip0_68_866)">
<path d="M27.2502 0H4.74989L0.3396 9.1953V9.40883C0.3396 11.6834 1.24355 13.281 2.48017 14.1606V32H29.5199V14.1244C30.7594 13.2377 31.6604 11.6534 31.6604 9.40883V9.1953L27.2502 0ZM5.93204 1.87802H26.0681L29.2297 8.46982H2.77039L5.93204 1.87802ZM26.9425 13.0816C25.7577 13.0816 24.4953 12.2185 24.1785 10.3478H29.7062C29.3894 12.2184 28.1272 13.0816 26.9425 13.0816ZM3.12565 12.2411C2.69646 11.7619 2.41406 11.1173 2.29005 10.3478H7.6118C7.48779 11.1171 7.20565 11.762 6.77646 12.2411C6.29093 12.7831 5.64263 13.0816 4.95102 13.0816C4.25941 13.0816 3.61118 12.7831 3.12565 12.2411ZM22.1535 10.3478C21.858 12.2185 20.6811 13.0816 19.5764 13.0816C18.4718 13.0816 17.2948 12.2185 16.9994 10.3478H22.1535ZM14.9775 10.3478C14.8531 11.1167 14.5703 11.7612 14.1401 12.2401C13.6525 12.7828 13.0014 13.0816 12.3065 13.0816C11.6116 13.0816 10.9604 12.7828 10.4729 12.2401C10.0427 11.7612 9.75982 11.1167 9.63544 10.3478H14.9775ZM12.8191 30.122H8.2919V19.3982H12.8191V30.122ZM27.6419 30.122H14.6971V17.5202H6.41388V30.122H4.35819V14.916C4.55501 14.9444 4.75308 14.9596 4.95102 14.9596C6.33907 14.9596 7.73757 14.2599 8.62456 12.8984C9.51355 14.2599 10.9152 14.9596 12.3065 14.9596C13.6932 14.9596 15.0902 14.2647 15.9796 12.9119C16.8505 14.2647 18.2185 14.9596 19.5764 14.9596C20.9393 14.9596 22.3123 14.2593 23.1828 12.8969C24.0902 14.2594 25.5216 14.9596 26.9424 14.9596C27.1761 14.9596 27.41 14.9398 27.6419 14.902V30.122H27.6419Z" fill="#091841"/>
<path d="M16.6625 24.565H25.5863V17.5201H16.6625V24.565ZM18.5405 19.3982H23.7083V22.687H18.5405V19.3982Z" fill="#091841"/>
</g>
<defs>
<clipPath id="clip0_68_866">
<rect width="32" height="32" fill="white"/>
</clipPath>
</defs>
</svg>
