<svg width="32" height="32" viewBox="0 0 32 32" fill="none" xmlns="http://www.w3.org/2000/svg">
<path d="M11.1575 0V4.30397L4 12.186V32H15.4982V27.5827L19.3654 23.6198H27V16.6388V6.98088V0H11.1575ZM25.1695 1.87581V4.99865C23.6607 4.64168 22.4704 3.42191 22.122 1.87581H25.1695ZM12.988 1.87581H16.0355C15.6871 3.42191 14.4967 4.64168 12.988 4.99865V1.87581ZM16.7767 23.6198L13.6677 26.8058V30.1241H5.83051V12.9237L11.1575 7.05753V10.0468L8.62136 12.6456L9.91571 13.972L14.0729 9.71199C14.1498 9.63314 14.2396 9.62138 14.2863 9.62138C14.333 9.62138 14.4228 9.63314 14.4998 9.71199L14.6532 9.86918C15.7549 10.9982 15.7549 12.8351 14.6532 13.9641L11.465 17.231L11.1581 17.5455L11.1575 23.6198H16.7767ZM17.1192 10.5637C17.536 9.87618 18.2739 9.44687 19.0787 9.44687C20.3502 9.44687 21.3847 10.5069 21.3847 11.8099C21.3847 13.1128 20.3502 14.1728 19.0787 14.1728C18.3052 14.1728 17.5827 13.7681 17.1588 13.1188C17.3703 12.281 17.3577 11.3955 17.1192 10.5637ZM12.9884 18.62C14.502 18.9766 15.6872 20.204 16.0351 21.744H12.988L12.9884 18.62ZM17.8981 21.744C17.5709 19.6115 16.1475 17.8297 14.2256 17.0548L15.9474 15.2904C16.0634 15.1716 16.1718 15.0478 16.2729 14.92C17.0261 15.6303 18.0259 16.0486 19.0787 16.0486C21.3595 16.0486 23.2152 14.1471 23.2152 11.8099C23.2152 9.47257 21.3595 7.57107 19.0787 7.57107C17.9707 7.57107 16.9336 8.02489 16.1732 8.79328C16.101 8.70793 16.0265 8.62389 15.9474 8.5428L15.7941 8.3856C15.3913 7.97286 14.8559 7.74558 14.2863 7.74558C13.8104 7.74558 13.3587 7.90477 12.988 8.19765V6.90803C15.5082 6.50386 17.5043 4.45835 17.8987 1.87581H20.2588C20.6532 4.45835 22.6493 6.50386 25.1695 6.90803V16.7117C22.6493 17.1159 20.6531 19.1614 20.2588 21.744H17.8981ZM25.1695 21.744H22.122C22.4704 20.1979 23.6607 18.978 25.1695 18.6211V21.744Z" fill="black"/>
</svg>
