<svg width="44" height="44" viewBox="0 0 44 44" fill="none" xmlns="http://www.w3.org/2000/svg">
<rect width="44" height="44" rx="22" fill="#EF4444"/>
<path d="M30.4201 14.58C29.9184 14.0766 29.3223 13.6772 28.6659 13.4046C28.0095 13.1321 27.3058 12.9918 26.5951 12.9918C25.8844 12.9918 25.1806 13.1321 24.5243 13.4046C23.8679 13.6772 23.2718 14.0766 22.7701 14.58L22.0001 15.36L21.2301 14.58C20.7284 14.0766 20.1323 13.6772 19.4759 13.4046C18.8195 13.1321 18.1158 12.9918 17.4051 12.9918C16.6944 12.9918 15.9906 13.1321 15.3343 13.4046C14.6779 13.6772 14.0818 14.0766 13.5801 14.58C11.4601 16.7 11.3301 20.28 14.0001 23L22.0001 31L30.0001 23C32.6701 20.28 32.5401 16.7 30.4201 14.58Z" stroke="#F9FAFB" stroke-width="2" stroke-linecap="round" stroke-linejoin="round"/>
<path d="M22.0002 15.36L18.8702 18.5C18.4745 18.8989 18.2524 19.4381 18.2524 20C18.2524 20.5619 18.4745 21.101 18.8702 21.5V21.5C19.2691 21.8957 19.8083 22.1177 20.3702 22.1177C20.9321 22.1177 21.4712 21.8957 21.8702 21.5L24.1302 19.29C24.6919 18.7343 25.4501 18.4226 26.2402 18.4226C27.0303 18.4226 27.7885 18.7343 28.3502 19.29L30.7502 21.69" stroke="#F9FAFB" stroke-width="2" stroke-linecap="round" stroke-linejoin="round"/>
<path d="M28 25L26 23" stroke="#F9FAFB" stroke-width="2" stroke-linecap="round" stroke-linejoin="round"/>
<path d="M25 28L23 26" stroke="#F9FAFB" stroke-width="2" stroke-linecap="round" stroke-linejoin="round"/>
</svg>
