<svg width="12" height="12" viewBox="0 0 12 12" fill="none" xmlns="http://www.w3.org/2000/svg">
<path d="M11.6518 0.348116C11.1875 -0.116039 10.4189 -0.116039 9.95464 0.348116L6 4.30143L2.04536 0.348116C1.58105 -0.116039 0.812542 -0.116039 0.348232 0.348116C-0.116077 0.812271 -0.116077 1.58053 0.348232 2.04468L4.30287 5.998L0.348232 9.95132C-0.116077 10.4155 -0.116077 11.1837 0.348232 11.6479C0.588392 11.888 0.892595 12 1.1968 12C1.501 12 1.8052 11.888 2.04536 11.6479L6 7.69457L9.95464 11.6479C10.1948 11.888 10.499 12 10.8032 12C11.1074 12 11.4116 11.888 11.6518 11.6479C12.1161 11.1837 12.1161 10.4155 11.6518 9.95132L7.69713 5.998L11.6518 2.04468C12.1161 1.58053 12.1161 0.812271 11.6518 0.348116Z" fill="#1F4FD8"/>
</svg>
