<svg width="42" height="42" viewBox="0 0 42 42" fill="none" xmlns="http://www.w3.org/2000/svg">
<path d="M33.25 4.375H8.75C6.33499 4.375 4.375 6.33499 4.375 8.75V36.75C4.375 37.2312 4.76876 37.625 5.25 37.625H29.75C33.1275 37.625 35.875 34.8775 35.875 31.5C35.875 28.42 33.5913 25.8738 30.625 25.445V18.375H36.75C37.2312 18.375 37.625 17.9812 37.625 17.5V8.75C37.625 6.33499 35.665 4.375 33.25 4.375ZM6.125 35.875V8.75C6.125 7.30623 7.30623 6.125 8.75 6.125H29.7763C29.2163 6.85997 28.875 7.76125 28.875 8.75V25.445C25.9087 25.8738 23.625 28.42 23.625 31.5C23.625 33.215 24.3337 34.7637 25.4712 35.875H6.125ZM34.125 31.5C34.125 33.915 32.165 35.875 29.75 35.875C27.335 35.875 25.375 33.915 25.375 31.5C25.375 29.085 27.335 27.125 29.75 27.125C32.165 27.125 34.125 29.085 34.125 31.5ZM35.875 16.625H30.625V8.75C30.625 7.30623 31.8062 6.125 33.25 6.125C34.6938 6.125 35.875 7.30623 35.875 8.75V16.625Z" fill="white"/>
<path d="M8.75 10.5C9.23325 10.5 9.625 10.1082 9.625 9.625C9.625 9.14175 9.23325 8.75 8.75 8.75C8.26675 8.75 7.875 9.14175 7.875 9.625C7.875 10.1082 8.26675 10.5 8.75 10.5Z" fill="white"/>
<path d="M12.25 10.5H26.25C26.7336 10.5 27.125 10.1086 27.125 9.625C27.125 9.14136 26.7336 8.75 26.25 8.75H12.25C11.7664 8.75 11.375 9.14136 11.375 9.625C11.375 10.1086 11.7664 10.5 12.25 10.5Z" fill="white"/>
<path d="M8.75 14.875C9.23325 14.875 9.625 14.4832 9.625 14C9.625 13.5168 9.23325 13.125 8.75 13.125C8.26675 13.125 7.875 13.5168 7.875 14C7.875 14.4832 8.26675 14.875 8.75 14.875Z" fill="white"/>
<path d="M12.25 14.875H26.25C26.7336 14.875 27.125 14.4836 27.125 14C27.125 13.5164 26.7336 13.125 26.25 13.125H12.25C11.7664 13.125 11.375 13.5164 11.375 14C11.375 14.4836 11.7664 14.875 12.25 14.875Z" fill="white"/>
<path d="M8.75 19.25C9.23325 19.25 9.625 18.8582 9.625 18.375C9.625 17.8918 9.23325 17.5 8.75 17.5C8.26675 17.5 7.875 17.8918 7.875 18.375C7.875 18.8582 8.26675 19.25 8.75 19.25Z" fill="white"/>
<path d="M12.25 19.25H26.25C26.7336 19.25 27.125 18.8586 27.125 18.375C27.125 17.8914 26.7336 17.5 26.25 17.5H12.25C11.7664 17.5 11.375 17.8914 11.375 18.375C11.375 18.8586 11.7664 19.25 12.25 19.25Z" fill="white"/>
<path d="M8.75 23.625C9.23325 23.625 9.625 23.2332 9.625 22.75C9.625 22.2668 9.23325 21.875 8.75 21.875C8.26675 21.875 7.875 22.2668 7.875 22.75C7.875 23.2332 8.26675 23.625 8.75 23.625Z" fill="white"/>
<path d="M12.25 23.625H26.25C26.7336 23.625 27.125 23.2336 27.125 22.75C27.125 22.2664 26.7336 21.875 26.25 21.875H12.25C11.7664 21.875 11.375 22.2664 11.375 22.75C11.375 23.2336 11.7664 23.625 12.25 23.625Z" fill="white"/>
<path d="M28.0718 30.8813C27.73 30.5396 27.1763 30.5396 26.8345 30.8813C26.4927 31.2231 26.4927 31.7769 26.8345 32.1186L28.3657 33.6499C28.7048 33.989 29.2642 33.9887 29.603 33.6499L32.6655 30.5874C33.0073 30.2456 33.0073 29.6919 32.6655 29.3501C32.3237 29.0083 31.77 29.0083 31.4282 29.3501L28.9844 31.7939L28.0718 30.8813Z" fill="white"/>
<path d="M17.5 28H8.75C8.26636 28 7.875 28.3914 7.875 28.875V32.375C7.875 32.8586 8.26636 33.25 8.75 33.25H17.5C17.9836 33.25 18.375 32.8586 18.375 32.375V28.875C18.375 28.3914 17.9836 28 17.5 28ZM16.625 31.5H9.625V29.75H16.625V31.5Z" fill="white"/>
</svg>
