<svg width="48" height="48" viewBox="0 0 48 48" fill="none" xmlns="http://www.w3.org/2000/svg">
<path d="M15 22C15.5523 22 16 21.5523 16 21C16 20.4477 15.5523 20 15 20C14.4477 20 14 20.4477 14 21C14 21.5523 14.4477 22 15 22Z" fill="white"/>
<path d="M41 26.3554V8C41 7.44775 40.5527 7 40 7H6C5.44727 7 5 7.44775 5 8V30C5 30.5527 5.44727 31 6 31H25.059C25.0224 31.3287 25 31.6617 25 32C25 36.9629 29.0371 41 34 41C38.9629 41 43 36.9629 43 32C43 29.8632 42.2484 27.9006 41 26.3554ZM39 9V11H7V9H39ZM7 29V13H39V24.5217C38.3839 24.1084 37.7105 23.7773 37 23.525V19C37 18.4478 36.5527 18 36 18C34.8975 18 34 17.103 34 16C34 15.4478 33.5527 15 33 15H13C12.4473 15 12 15.4478 12 16C12 17.103 11.1025 18 10 18C9.44727 18 9 18.4478 9 19V23C9 23.5522 9.44727 24 10 24C11.1025 24 12 24.897 12 26C12 26.5527 12.4473 27 13 27H26.5217C26.1084 27.6161 25.7773 28.2895 25.525 29H7ZM28.3554 25H25.9993C26.6227 23.9452 27 22.5524 27 21C27 19.4476 26.6227 18.0548 25.9993 17H32.1269C32.4893 18.4038 33.5967 19.5107 35 19.8735V23.059C34.6713 23.0224 34.3383 23 34 23C31.8632 23 29.9006 23.7516 28.3554 25ZM21 21C21 18.7105 22.0557 17 23 17C23.9443 17 25 18.7105 25 21C25 23.2896 23.9443 25 23 25C22.0557 25 21 23.2896 21 21ZM20.0007 25H13.873C13.5107 23.5962 12.4033 22.4893 11 22.1265V19.8735C12.4033 19.5107 13.5107 18.4038 13.873 17H20.0007C19.3773 18.0548 19 19.4476 19 21C19 22.5524 19.3773 23.9452 20.0007 25ZM34 39C30.1406 39 27 35.8594 27 32C27 28.1406 30.1406 25 34 25C37.8594 25 41 28.1406 41 32C41 35.8594 37.8594 39 34 39Z" fill="white"/>
<path d="M36.793 28.96L32.833 32.9189L31.207 31.293C30.8164 30.9023 30.1836 30.9023 29.793 31.293C29.4023 31.6836 29.4023 32.3164 29.793 32.707L32.126 35.04C32.5123 35.4263 33.1544 35.4256 33.54 35.04L38.207 30.374C38.5976 29.9834 38.5976 29.3506 38.207 28.96C37.8164 28.5693 37.1836 28.5693 36.793 28.96Z" fill="white"/>
</svg>
