<svg width="19" height="20" viewBox="0 0 19 20" fill="none" xmlns="http://www.w3.org/2000/svg">
<g filter="url(#filter0_f_349_416)">
<path d="M1.67773 10.687C1.68609 11.9468 2.04389 13.2465 2.58547 14.2958V14.303C2.97679 15.065 3.51161 15.6669 4.12077 16.2632L7.79989 14.9165C7.10382 14.5617 6.99761 14.3444 6.49864 13.9477C5.98874 13.4319 5.60871 12.8397 5.37204 12.1453H5.3625L5.37204 12.1381C5.21634 11.6796 5.20098 11.1929 5.19524 10.687H1.67773Z" fill="url(#paint0_radial_349_416)"/>
</g>
<g filter="url(#filter1_f_349_416)">
<path d="M9.84469 2.66809C9.48104 3.94978 9.62008 5.19562 9.84469 5.9205C10.2646 5.92081 10.6691 5.97103 11.0527 6.07108C11.9321 6.30043 12.554 6.75216 12.9351 7.10946L15.2938 4.79222C13.8965 3.50693 12.215 2.67012 9.84469 2.66809Z" fill="url(#paint1_radial_349_416)"/>
</g>
<g filter="url(#filter2_f_349_416)">
<path d="M9.83649 2.65796C8.0528 2.65792 6.40603 3.21547 5.05655 4.15776C4.55549 4.50763 4.09567 4.91179 3.68623 5.36122C3.57897 6.37077 4.48917 7.61161 6.29166 7.60134C7.16621 6.58072 8.45966 5.92039 9.89927 5.92039C9.90058 5.92039 9.90186 5.9205 9.90317 5.9205L9.84438 2.65819C9.84172 2.65819 9.83915 2.65796 9.83649 2.65796Z" fill="url(#paint2_radial_349_416)"/>
</g>
<g filter="url(#filter3_f_349_416)">
<path d="M15.7223 11.0524L14.1303 12.1496C14.0604 12.5799 13.9034 13.0033 13.6737 13.3892C13.4105 13.8315 13.0851 14.1682 12.7516 14.4246C11.7546 15.191 10.593 15.3488 9.78426 15.3495C8.9484 16.7777 8.80185 17.4931 9.84306 18.6459C11.1314 18.6449 12.2736 18.4116 13.2811 17.9747C14.0094 17.6588 14.6546 17.2468 15.2388 16.7174C16.0108 16.0178 16.6154 15.1525 17.028 14.1569C17.4407 13.1614 17.6613 12.0356 17.6613 10.8151L15.7223 11.0524Z" fill="url(#paint3_radial_349_416)"/>
</g>
<g filter="url(#filter4_f_349_416)">
<path d="M9.72656 9.05133V12.3229H17.3864C17.4537 11.8749 17.6765 11.2951 17.6765 10.8151C17.6765 10.2542 17.6204 9.56905 17.5252 9.05133H9.72656Z" fill="#3086FF"/>
</g>
<g filter="url(#filter5_f_349_416)">
<path d="M3.72256 5.24573C3.24987 5.76459 2.84605 6.34535 2.52587 6.97344C1.97656 8.0476 1.67578 9.35349 1.67578 10.6334C1.67578 10.6514 1.67727 10.6691 1.67739 10.6871C1.92066 11.155 5.03778 11.0654 5.19489 10.6871C5.19469 10.6694 5.19271 10.6522 5.19271 10.6345C5.19271 10.1095 5.28111 9.72262 5.44224 9.24803C5.64102 8.66263 5.95225 8.12355 6.35024 7.65909C6.44046 7.54354 6.68111 7.29512 6.75132 7.14611C6.77806 7.08935 6.70276 7.05749 6.69855 7.03752C6.69384 7.01517 6.59288 7.03314 6.57026 7.0165C6.49845 6.96365 6.35624 6.93606 6.26989 6.91153C6.08532 6.85909 5.77943 6.74347 5.60953 6.62361C5.07249 6.24475 4.23438 5.7922 3.72256 5.24573Z" fill="url(#paint4_radial_349_416)"/>
</g>
<g filter="url(#filter6_f_349_416)">
<path d="M5.62053 7.03975C6.86589 7.79658 7.22403 6.65774 8.05202 6.30137L6.61171 3.30484C6.08188 3.52825 5.5813 3.80581 5.11684 4.13012C4.42321 4.61446 3.81068 5.20548 3.30469 5.87808L5.62053 7.03975Z" fill="url(#paint5_radial_349_416)"/>
</g>
<g filter="url(#filter7_f_349_416)">
<path d="M6.12639 14.685C4.45466 15.2904 4.19294 15.3122 4.03906 16.3515C4.33312 16.6394 4.64907 16.9057 4.98481 17.1472C5.88571 17.7951 7.61865 18.658 9.83493 18.658C9.83753 18.658 9.84002 18.6577 9.84262 18.6577V15.2917C9.84094 15.2917 9.83902 15.2919 9.83734 15.2919C9.00742 15.2919 8.34423 15.0732 7.66426 14.6929C7.49661 14.5991 7.19244 14.8509 7.03782 14.7383C6.82457 14.5831 6.31135 14.8721 6.12639 14.685Z" fill="url(#paint6_radial_349_416)"/>
</g>
<g opacity="0.5" filter="url(#filter8_f_349_416)">
<path d="M8.86523 15.1857V18.5994C9.17533 18.6358 9.49805 18.6579 9.83659 18.6579C10.176 18.6579 10.5043 18.6405 10.8233 18.6083V15.2087C10.4658 15.27 10.1291 15.2918 9.839 15.2918C9.50492 15.2918 9.18003 15.2528 8.86523 15.1857Z" fill="url(#paint7_linear_349_416)"/>
</g>
<defs>
<filter id="filter0_f_349_416" x="1.20766" y="10.217" width="7.06321" height="6.51636" filterUnits="userSpaceOnUse" color-interpolation-filters="sRGB">
<feFlood flood-opacity="0" result="BackgroundImageFix"/>
<feBlend mode="normal" in="SourceGraphic" in2="BackgroundImageFix" result="shape"/>
<feGaussianBlur stdDeviation="0.23504" result="effect1_foregroundBlur_349_416"/>
</filter>
<filter id="filter1_f_349_416" x="9.15101" y="2.19801" width="6.61203" height="5.38153" filterUnits="userSpaceOnUse" color-interpolation-filters="sRGB">
<feFlood flood-opacity="0" result="BackgroundImageFix"/>
<feBlend mode="normal" in="SourceGraphic" in2="BackgroundImageFix" result="shape"/>
<feGaussianBlur stdDeviation="0.23504" result="effect1_foregroundBlur_349_416"/>
</filter>
<filter id="filter2_f_349_416" x="3.20766" y="2.18788" width="7.16477" height="5.88361" filterUnits="userSpaceOnUse" color-interpolation-filters="sRGB">
<feFlood flood-opacity="0" result="BackgroundImageFix"/>
<feBlend mode="normal" in="SourceGraphic" in2="BackgroundImageFix" result="shape"/>
<feGaussianBlur stdDeviation="0.23504" result="effect1_foregroundBlur_349_416"/>
</filter>
<filter id="filter3_f_349_416" x="8.6393" y="10.345" width="9.49289" height="8.77097" filterUnits="userSpaceOnUse" color-interpolation-filters="sRGB">
<feFlood flood-opacity="0" result="BackgroundImageFix"/>
<feBlend mode="normal" in="SourceGraphic" in2="BackgroundImageFix" result="shape"/>
<feGaussianBlur stdDeviation="0.23504" result="effect1_foregroundBlur_349_416"/>
</filter>
<filter id="filter4_f_349_416" x="9.25648" y="8.58125" width="8.88938" height="4.21173" filterUnits="userSpaceOnUse" color-interpolation-filters="sRGB">
<feFlood flood-opacity="0" result="BackgroundImageFix"/>
<feBlend mode="normal" in="SourceGraphic" in2="BackgroundImageFix" result="shape"/>
<feGaussianBlur stdDeviation="0.23504" result="effect1_foregroundBlur_349_416"/>
</filter>
<filter id="filter5_f_349_416" x="1.2057" y="4.77565" width="6.02219" height="6.69974" filterUnits="userSpaceOnUse" color-interpolation-filters="sRGB">
<feFlood flood-opacity="0" result="BackgroundImageFix"/>
<feBlend mode="normal" in="SourceGraphic" in2="BackgroundImageFix" result="shape"/>
<feGaussianBlur stdDeviation="0.23504" result="effect1_foregroundBlur_349_416"/>
</filter>
<filter id="filter6_f_349_416" x="-0.000162601" y="-1.00136e-05" width="11.3577" height="10.599" filterUnits="userSpaceOnUse" color-interpolation-filters="sRGB">
<feFlood flood-opacity="0" result="BackgroundImageFix"/>
<feBlend mode="normal" in="SourceGraphic" in2="BackgroundImageFix" result="shape"/>
<feGaussianBlur stdDeviation="1.65243" result="effect1_foregroundBlur_349_416"/>
</filter>
<filter id="filter7_f_349_416" x="3.56898" y="14.2014" width="6.74289" height="4.92664" filterUnits="userSpaceOnUse" color-interpolation-filters="sRGB">
<feFlood flood-opacity="0" result="BackgroundImageFix"/>
<feBlend mode="normal" in="SourceGraphic" in2="BackgroundImageFix" result="shape"/>
<feGaussianBlur stdDeviation="0.23504" result="effect1_foregroundBlur_349_416"/>
</filter>
<filter id="filter8_f_349_416" x="8.39516" y="14.7156" width="2.89914" height="4.41239" filterUnits="userSpaceOnUse" color-interpolation-filters="sRGB">
<feFlood flood-opacity="0" result="BackgroundImageFix"/>
<feBlend mode="normal" in="SourceGraphic" in2="BackgroundImageFix" result="shape"/>
<feGaussianBlur stdDeviation="0.23504" result="effect1_foregroundBlur_349_416"/>
</filter>
<radialGradient id="paint0_radial_349_416" cx="0" cy="0" r="1" gradientTransform="matrix(-0.32761 -7.87672 11.7789 -0.472675 7.72624 16.1446)" gradientUnits="userSpaceOnUse">
<stop offset="0.141612" stop-color="#1ABD4D"/>
<stop offset="0.247515" stop-color="#6EC30D"/>
<stop offset="0.311547" stop-color="#8AC502"/>
<stop offset="0.366013" stop-color="#A2C600"/>
<stop offset="0.445673" stop-color="#C8C903"/>
<stop offset="0.540305" stop-color="#EBCB03"/>
<stop offset="0.615636" stop-color="#F7CD07"/>
<stop offset="0.699345" stop-color="#FDCD04"/>
<stop offset="0.771242" stop-color="#FDCE05"/>
<stop offset="0.860566" stop-color="#FFCE0A"/>
</radialGradient>
<radialGradient id="paint1_radial_349_416" cx="0" cy="0" r="1" gradientTransform="matrix(5.56372 -1.34151e-05 -7.82003e-06 7.05777 15.0731 6.9418)" gradientUnits="userSpaceOnUse">
<stop offset="0.408458" stop-color="#FB4E5A"/>
<stop offset="1" stop-color="#FF4540"/>
</radialGradient>
<radialGradient id="paint2_radial_349_416" cx="0" cy="0" r="1" gradientTransform="matrix(-7.79517 4.24083 5.85873 10.3903 12.0344 1.63632)" gradientUnits="userSpaceOnUse">
<stop offset="0.231273" stop-color="#FF4541"/>
<stop offset="0.311547" stop-color="#FF4540"/>
<stop offset="0.457516" stop-color="#FF4640"/>
<stop offset="0.540305" stop-color="#FF473F"/>
<stop offset="0.699346" stop-color="#FF5138"/>
<stop offset="0.771242" stop-color="#FF5B33"/>
<stop offset="0.860566" stop-color="#FF6C29"/>
<stop offset="1" stop-color="#FF8C18"/>
</radialGradient>
<radialGradient id="paint3_radial_349_416" cx="0" cy="0" r="1" gradientTransform="matrix(-14.1368 -18.1266 -6.81181 5.12565 9.95895 17.6222)" gradientUnits="userSpaceOnUse">
<stop offset="0.131546" stop-color="#0CBA65"/>
<stop offset="0.209784" stop-color="#0BB86D"/>
<stop offset="0.297297" stop-color="#09B479"/>
<stop offset="0.396257" stop-color="#08AD93"/>
<stop offset="0.477124" stop-color="#0AA6A9"/>
<stop offset="0.568425" stop-color="#0D9CC6"/>
<stop offset="0.667385" stop-color="#1893DD"/>
<stop offset="0.768727" stop-color="#258BF1"/>
<stop offset="0.858506" stop-color="#3086FF"/>
</radialGradient>
<radialGradient id="paint4_radial_349_416" cx="0" cy="0" r="1" gradientTransform="matrix(-1.00043 8.47002 11.9228 1.35872 9.15333 4.15182)" gradientUnits="userSpaceOnUse">
<stop offset="0.366013" stop-color="#FF4E3A"/>
<stop offset="0.457516" stop-color="#FF8A1B"/>
<stop offset="0.540305" stop-color="#FFA312"/>
<stop offset="0.615636" stop-color="#FFB60C"/>
<stop offset="0.771242" stop-color="#FFCD0A"/>
<stop offset="0.860566" stop-color="#FECF0A"/>
<stop offset="0.915033" stop-color="#FECF08"/>
<stop offset="1" stop-color="#FDCD01"/>
</radialGradient>
<radialGradient id="paint5_radial_349_416" cx="0" cy="0" r="1" gradientTransform="matrix(-2.89175 3.14147 -9.02068 -8.01161 7.74594 4.06395)" gradientUnits="userSpaceOnUse">
<stop offset="0.315904" stop-color="#FF4C3C"/>
<stop offset="0.603818" stop-color="#FF692C"/>
<stop offset="0.726837" stop-color="#FF7825"/>
<stop offset="0.884534" stop-color="#FF8D1B"/>
<stop offset="1" stop-color="#FF9F13"/>
</radialGradient>
<radialGradient id="paint6_radial_349_416" cx="0" cy="0" r="1" gradientTransform="matrix(-7.79517 -4.24083 5.85873 -10.3903 12.0327 19.6315)" gradientUnits="userSpaceOnUse">
<stop offset="0.231273" stop-color="#0FBC5F"/>
<stop offset="0.311547" stop-color="#0FBC5F"/>
<stop offset="0.366013" stop-color="#0FBC5E"/>
<stop offset="0.457516" stop-color="#0FBC5D"/>
<stop offset="0.540305" stop-color="#12BC58"/>
<stop offset="0.699346" stop-color="#28BF3C"/>
<stop offset="0.771242" stop-color="#38C02B"/>
<stop offset="0.860566" stop-color="#52C218"/>
<stop offset="0.915033" stop-color="#67C30F"/>
<stop offset="1" stop-color="#86C504"/>
</radialGradient>
<linearGradient id="paint7_linear_349_416" x1="8.86523" y1="16.9218" x2="10.8233" y2="16.9218" gradientUnits="userSpaceOnUse">
<stop stop-color="#0FBC5C"/>
<stop offset="1" stop-color="#0CBA65"/>
</linearGradient>
</defs>
</svg>
