<svg width="24" height="24" viewBox="0 0 24 24" fill="none" xmlns="http://www.w3.org/2000/svg">
<path d="M19.16 8.04001L15.16 4.47001C13.36 2.86001 10.64 2.86001 8.84 4.47001L4.84 8.04001C3.83 8.94001 3.25 10.23 3.25 11.59V17.95C3.25 20.05 4.93 21.76 7 21.76H17C19.07 21.76 20.75 20.05 20.75 17.95V11.59C20.75 10.24 20.17 8.94001 19.16 8.04001ZM14.25 20.25H9.75V17C9.75 15.76 10.76 14.75 12 14.75C13.24 14.75 14.25 15.76 14.25 17V20.25ZM19.25 17.94C19.25 19.21 18.24 20.25 17 20.25H15.75V17C15.75 14.93 14.07 13.25 12 13.25C9.93 13.25 8.25 14.93 8.25 17V20.25H7C5.76 20.25 4.75 19.22 4.75 17.94V11.58C4.75 10.65 5.15 9.77001 5.84 9.15001L9.84 5.58001C11.07 4.48001 12.93 4.48001 14.16 5.58001L18.16 9.15001C18.85 9.77001 19.25 10.65 19.25 11.58V17.94Z" fill="#091841"/>
</svg>
