<svg width="44" height="44" viewBox="0 0 44 44" fill="none" xmlns="http://www.w3.org/2000/svg">
<rect width="44" height="44" rx="22" fill="#F59E0B"/>
<path d="M19 28H25" stroke="#F9FAFB" stroke-width="2" stroke-linecap="round" stroke-linejoin="round"/>
<path d="M20 32H24" stroke="#F9FAFB" stroke-width="2" stroke-linecap="round" stroke-linejoin="round"/>
<path d="M25.09 24C25.27 23.02 25.74 22.26 26.5 21.5C26.9829 21.0555 27.3662 20.5138 27.6247 19.9106C27.8832 19.3073 28.0111 18.6562 28 18C28 16.4087 27.3679 14.8826 26.2426 13.7574C25.1174 12.6321 23.5913 12 22 12C20.4087 12 18.8826 12.6321 17.7574 13.7574C16.6321 14.8826 16 16.4087 16 18C16 19 16.23 20.23 17.5 21.5C18.2241 22.1621 18.718 23.0379 18.91 24" stroke="#F9FAFB" stroke-width="2" stroke-linecap="round" stroke-linejoin="round"/>
</svg>
