<svg width="32" height="32" viewBox="0 0 32 32" fill="none" xmlns="http://www.w3.org/2000/svg">
<g clip-path="url(#clip0_109_577)">
<path d="M27.9138 0.0322266H4.08617C1.83309 0.0322266 0 1.86532 0 4.11846V19.3726C0 21.6257 1.83309 23.4588 4.08617 23.4588H11.7056L10.0678 30.0929H5.28146V31.9679H26.7185V30.0929H21.9317L20.289 23.4588H27.9138C30.167 23.4588 32 21.6257 32 19.3726V4.11846C32 1.86532 30.167 0.0322266 27.9138 0.0322266ZM4.08617 1.90719H27.9138C29.1331 1.90719 30.125 2.89917 30.125 4.1184V16.5836H1.87496V4.11846C1.87496 2.89917 2.86694 1.90719 4.08617 1.90719ZM20.0001 30.0929H11.9991L13.6369 23.4588H18.3575L20.0001 30.0929ZM27.9138 21.5839H4.08617C2.86688 21.5839 1.87496 20.5919 1.87496 19.3726V18.4586H30.125V19.3726C30.125 20.5919 29.1331 21.5839 27.9138 21.5839Z" fill="black"/>
<path d="M12.4827 10.2346L17.7553 14.1412L23.6066 8.28998V9.77664H25.4815V5.08923H20.7941V6.9642H22.2808L17.5726 11.6724L12.3835 7.82762L6.47583 13.0093L7.71218 14.4189L12.4827 10.2346Z" fill="black"/>
</g>
<defs>
<clipPath id="clip0_109_577">
<rect width="32" height="32" fill="white"/>
</clipPath>
</defs>
</svg>
