<svg width="24" height="24" viewBox="0 0 24 24" fill="none" xmlns="http://www.w3.org/2000/svg">
<path d="M19.75 10C19.75 5.73 16.27 2.25 12 2.25C7.73 2.25 4.25 5.73 4.25 10C4.25 13.03 6.01 15.74 8.73 17.01L11.35 21.38C11.49 21.61 11.73 21.74 11.99 21.74C12.25 21.74 12.5 21.6 12.63 21.38L15.26 17.01C17.99 15.74 19.74 13.02 19.74 10H19.75ZM14.44 15.76C14.44 15.76 14.4 15.79 14.37 15.8C14.32 15.83 14.28 15.85 14.24 15.89C14.2 15.92 14.17 15.96 14.14 16C14.12 16.02 14.1 16.04 14.08 16.06L11.99 19.54L9.9 16.06C9.9 16.06 9.87 16.04 9.86 16.02C9.82 15.96 9.78 15.92 9.72 15.87C9.69 15.85 9.66 15.83 9.63 15.81C9.6 15.79 9.58 15.76 9.54 15.75C7.22 14.77 5.72 12.51 5.72 9.99C5.72 6.54 8.52 3.74 11.97 3.74C15.42 3.74 18.22 6.54 18.22 9.99C18.22 12.5 16.72 14.76 14.41 15.75L14.44 15.76Z" fill="#F9FAFB"/>
<path d="M12 6.25C9.93 6.25 8.25 7.93 8.25 10C8.25 12.07 9.93 13.75 12 13.75C14.07 13.75 15.75 12.07 15.75 10C15.75 7.93 14.07 6.25 12 6.25ZM12 12.25C10.76 12.25 9.75 11.24 9.75 10C9.75 8.76 10.76 7.75 12 7.75C13.24 7.75 14.25 8.76 14.25 10C14.25 11.24 13.24 12.25 12 12.25Z" fill="#F9FAFB"/>
</svg>
