<svg width="24" height="24" viewBox="0 0 24 24" fill="none" xmlns="http://www.w3.org/2000/svg">
<path d="M21.2 5.14C20.53 4.51 19.11 3.42 17.06 3.26C14.74 3.06 12.98 4.18 12.14 4.86C12.06 4.92 11.94 4.93 11.86 4.86C11.02 4.18 9.27 3.07 6.94 3.26C4.89 3.43 3.46 4.51 2.8 5.14C2.45 5.47 2.25 5.93 2.25 6.41V17.45C2.25 18.02 2.53 18.56 2.99 18.89C3.45 19.22 4.02 19.3 4.55 19.12C5.34 18.85 6.17 18.71 6.98 18.74C8.76 18.79 10.13 19.51 10.96 20.12C11.27 20.34 11.63 20.46 12 20.46C12.37 20.46 12.73 20.35 13.04 20.12C13.87 19.52 15.24 18.79 17.02 18.74C17.84 18.71 18.66 18.85 19.45 19.12C19.98 19.3 20.55 19.22 21.01 18.89C21.47 18.56 21.75 18.02 21.75 17.45V6.41C21.75 5.92 21.56 5.47 21.2 5.14ZM7.02 17.25C6.95 17.25 6.88 17.25 6.8 17.25C5.87 17.25 4.95 17.4 4.06 17.71C3.97 17.74 3.91 17.71 3.86 17.68C3.83 17.66 3.75 17.58 3.75 17.46V6.41C3.75 6.34 3.78 6.28 3.83 6.23C4.35 5.73 5.47 4.88 7.06 4.75C8.78 4.62 10.1 5.36 10.91 6.02C11.01 6.1 11.13 6.15 11.25 6.21V18.53C10.24 17.91 8.81 17.3 7.02 17.26V17.25ZM20.25 17.45C20.25 17.58 20.17 17.65 20.13 17.67C20.09 17.7 20.02 17.73 19.93 17.7C18.97 17.37 17.97 17.22 16.97 17.24C15.18 17.29 13.75 17.89 12.74 18.51V6.2C12.85 6.14 12.97 6.1 13.07 6.01C13.88 5.35 15.2 4.61 16.92 4.74C18.51 4.87 19.63 5.72 20.15 6.22C20.2 6.27 20.23 6.33 20.23 6.4V17.44L20.25 17.45Z" fill="#091841"/>
</svg>
