<svg width="101" height="101" viewBox="0 0 101 101" fill="none" xmlns="http://www.w3.org/2000/svg">
<rect width="101" height="101" rx="50.5" fill="white" fill-opacity="0.19"/>
<path d="M69.6666 61.6599V68.1599C69.6691 68.7633 69.5455 69.3606 69.3037 69.9135C69.062 70.4664 68.7074 70.9627 68.2628 71.3706C67.8181 71.7785 67.2932 72.0891 66.7216 72.2824C66.1499 72.4757 65.5442 72.5475 64.9433 72.4932C58.2761 71.7688 51.8718 69.4905 46.2449 65.8416C41.0099 62.515 36.5715 58.0766 33.2449 52.8416C29.5832 47.1892 27.3045 40.7537 26.5933 34.0566C26.5391 33.4574 26.6103 32.8535 26.8024 32.2834C26.9944 31.7133 27.303 31.1894 27.7086 30.7451C28.1142 30.3007 28.6078 29.9458 29.1582 29.7027C29.7085 29.4596 30.3033 29.3338 30.9049 29.3332H37.4049C38.4564 29.3229 39.4758 29.6952 40.2731 30.3809C41.0704 31.0665 41.5911 32.0187 41.7383 33.0599C42.0126 35.14 42.5214 37.1825 43.2549 39.1482C43.5464 39.9237 43.6095 40.7665 43.4367 41.5768C43.2639 42.3871 42.8625 43.1308 42.2799 43.7199L39.5283 46.4716C42.6126 51.8959 47.1039 56.3872 52.5283 59.4716L55.2799 56.7199C55.869 56.1373 56.6128 55.7359 57.423 55.5631C58.2333 55.3903 59.0761 55.4534 59.8516 55.7449C61.8174 56.4784 63.8598 56.9872 65.9399 57.2616C66.9924 57.41 67.9536 57.9402 68.6408 58.7511C69.3279 59.5621 69.693 60.5973 69.6666 61.6599Z" stroke="white" stroke-width="2" stroke-linecap="round" stroke-linejoin="round"/>
<path d="M52.4419 29.3333C56.8581 29.7986 60.9833 31.7573 64.1351 34.8855C67.2869 38.0137 69.2767 42.124 69.7752 46.5366" stroke="white" stroke-width="2" stroke-linecap="round" stroke-linejoin="round"/>
<path d="M52.4419 38C54.5728 38.4202 56.5283 39.4712 58.0544 41.0167C59.5805 42.5621 60.6069 44.5306 61.0002 46.6667" stroke="white" stroke-width="2" stroke-linecap="round" stroke-linejoin="round"/>
</svg>
