<svg width="48" height="48" viewBox="0 0 48 48" fill="none" xmlns="http://www.w3.org/2000/svg">
<path d="M41.6834 8.05102C36.2586 9.86108 30.4188 9.07788 25.661 5.90551L24.5546 5.16772C24.2186 4.94409 23.7811 4.94409 23.4452 5.16772L22.3387 5.90551C17.5814 9.07787 11.7401 9.86108 6.31628 8.05102C5.65618 7.83099 4.9544 8.37347 5.00232 9.0686C5.00385 9.09063 5.86755 21.6155 5.86755 21.6155C6.57653 31.8904 13.766 40.4724 23.7572 42.9695C23.9161 43.0104 24.0837 43.0092 24.2426 42.9695C34.2343 40.4724 41.4237 31.8904 42.1327 21.6155L42.9979 9.0686C43.0448 8.37402 42.3477 7.82934 41.6834 8.05102ZM40.1366 21.4778C39.494 30.8025 33.0214 38.6033 23.9999 40.9675C14.9779 38.6033 8.50622 30.8025 7.86266 21.4778L7.09655 10.3645C12.6976 11.8025 18.5834 10.8118 23.4481 7.56958L23.9999 7.2019L24.5516 7.56958C29.4149 10.8123 35.2997 11.803 40.9032 10.3645L40.1366 21.4778Z" fill="white"/>
<path d="M23.492 9.90161C20.057 11.9255 16.1292 12.9954 12.1326 12.9954C11.5623 12.9954 10.9881 12.9734 10.4251 12.9304C9.83228 12.8822 9.31042 13.4031 9.35138 13.9963C9.35242 14.0111 9.85822 21.3401 9.85822 21.3401C10.4232 29.5398 15.8592 36.3953 23.7064 38.8054C23.8897 38.8617 24.1024 38.8638 24.2933 38.8054C32.1404 36.3953 37.576 29.5398 38.1424 21.3401L38.6483 13.9963C38.6885 13.3987 38.1725 12.8846 37.574 12.9304C37.0125 12.9734 36.4383 12.9954 35.867 12.9954C31.8699 12.9954 27.9422 11.9255 24.5076 9.9021C24.1942 9.71655 23.8055 9.71801 23.492 9.90161ZM36.575 14.9851L36.1463 21.2024C35.6453 28.4675 30.8904 34.5574 23.9998 36.8005C17.1087 34.5574 12.3543 28.4675 11.8533 21.2024L11.4241 14.9851C15.8275 15.1086 20.1751 14.0466 23.9998 11.9158C27.824 14.0461 32.1658 15.1111 36.575 14.9851Z" fill="white"/>
<path d="M16 23.9998C16 28.4109 19.5889 31.9998 24 31.9998C28.4111 31.9998 32 28.4109 32 23.9998C32 19.5886 28.4111 15.9998 24 15.9998C19.5889 15.9998 16 19.5886 16 23.9998ZM30 23.9998C30 27.3083 27.3086 29.9998 24 29.9998C20.6914 29.9998 18 27.3083 18 23.9998C18 20.6912 20.6914 17.9998 24 17.9998C27.3086 17.9998 30 20.6912 30 23.9998Z" fill="white"/>
<path d="M21.207 23.2927C20.8164 22.9021 20.1836 22.9021 19.793 23.2927C19.4023 23.6833 19.4023 24.3166 19.793 24.7068L22.1265 27.0398C22.5128 27.4261 23.1547 27.4256 23.5405 27.0398L28.207 22.3733C28.5976 21.9827 28.5976 21.3498 28.207 20.9592C27.8164 20.5686 27.1836 20.5686 26.793 20.9592L22.8335 24.9187L21.207 23.2927Z" fill="white"/>
</svg>
