<svg width="24" height="24" viewBox="0 0 24 24" fill="none" xmlns="http://www.w3.org/2000/svg">
<path d="M21.1801 11.3699C21.7001 10.8599 21.8801 10.1199 21.6601 9.4299C21.4401 8.7399 20.8501 8.2399 20.1301 8.1399L15.9001 7.5199C15.7701 7.4999 15.6601 7.4199 15.6001 7.2999L13.7101 3.4599C13.3901 2.8099 12.7401 2.3999 12.0101 2.3999C11.2801 2.3999 10.6301 2.8099 10.3101 3.4599L8.4201 7.2999C8.3601 7.4199 8.2501 7.4999 8.1201 7.5199L3.8901 8.1399C3.1701 8.2399 2.5801 8.7399 2.3601 9.4299C2.1401 10.1199 2.3201 10.8699 2.8401 11.3699L5.9001 14.3499C5.9901 14.4399 6.0401 14.5699 6.0101 14.6999L5.2901 18.9199C5.1701 19.6399 5.4601 20.3499 6.0401 20.7699C6.3701 21.0099 6.7601 21.1299 7.1501 21.1299C7.4501 21.1299 7.7501 21.0599 8.0301 20.9099L11.8201 18.9199C11.9301 18.8599 12.0701 18.8599 12.1901 18.9199L15.9801 20.9099C16.6201 21.2499 17.3901 21.1999 17.9801 20.7699C18.5701 20.3399 18.8601 19.6299 18.7301 18.9199L18.0101 14.6999C17.9901 14.5699 18.0301 14.4399 18.1201 14.3499L21.1801 11.3599V11.3699Z" fill="#FFDE07"/>
</svg>
