<svg width="42" height="42" viewBox="0 0 42 42" fill="none" xmlns="http://www.w3.org/2000/svg">
<path d="M35 4.375H7C6.51876 4.375 6.125 4.76876 6.125 5.25V36.75C6.125 37.2312 6.51876 37.625 7 37.625H35C35.4812 37.625 35.875 37.2312 35.875 36.75V5.25C35.875 4.76876 35.4812 4.375 35 4.375ZM14.875 6.125H27.125V7.875H23.625C23.1438 7.875 22.75 8.26876 22.75 8.75V9.625C22.75 10.5875 21.9625 11.375 21 11.375C20.0375 11.375 19.25 10.5875 19.25 9.625V8.75C19.25 8.26876 18.8562 7.875 18.375 7.875H14.875V6.125ZM17.5 9.625C17.5 11.5587 19.0662 13.125 21 13.125C22.9338 13.125 24.5 11.5587 24.5 9.625H30.625V32.375H11.375V9.625H17.5ZM34.125 35.875H7.875V6.125H13.125V7.875H10.5C10.0188 7.875 9.625 8.26876 9.625 8.75V33.25C9.625 33.7312 10.0188 34.125 10.5 34.125H31.5C31.9812 34.125 32.375 33.7312 32.375 33.25V8.75C32.375 8.26876 31.9812 7.875 31.5 7.875H28.875V6.125H34.125V35.875Z" fill="white"/>
<path d="M21 27.125C24.3774 27.125 27.125 24.3774 27.125 21C27.125 17.6226 24.3774 14.875 21 14.875C17.6226 14.875 14.875 17.6226 14.875 21C14.875 24.3774 17.6226 27.125 21 27.125ZM21 16.625C23.4122 16.625 25.375 18.5878 25.375 21C25.375 23.4122 23.4122 25.375 21 25.375C18.5878 25.375 16.625 23.4122 16.625 21C16.625 18.5878 18.5878 16.625 21 16.625Z" fill="white"/>
<path d="M19.6157 23.1499C19.9405 23.4747 20.5064 23.4966 20.853 23.1499L23.9155 20.0874C24.2573 19.7456 24.2573 19.1919 23.9155 18.8501C23.5737 18.5083 23.02 18.5083 22.6782 18.8501L20.2344 21.2939L19.3218 20.3813C18.98 20.0396 18.4263 20.0396 18.0845 20.3813C17.7427 20.7231 17.7427 21.2769 18.0845 21.6186L19.6157 23.1499Z" fill="white"/>
<path d="M14 30.625H28C28.4832 30.625 28.875 30.2332 28.875 29.75C28.875 29.2668 28.4832 28.875 28 28.875H14C13.5168 28.875 13.125 29.2668 13.125 29.75C13.125 30.2332 13.5168 30.625 14 30.625Z" fill="white"/>
</svg>
